<svg xmlns="http://www.w3.org/2000/svg" width="32" height="32" viewBox="0 0 25 32"><path d="M14.554 15.34q.143 1.124-.902 1.803t-1.99.107q-.697-.304-.956-1.036t-.01-1.464.93-1.036q.643-.32 1.295-.214t1.144.634.49 1.205zm1.982-.376q-.25-1.91-2.018-2.93T11 11.805q-1.125.5-1.795 1.58t-.616 2.312q.07 1.625 1.383 2.768t2.955 1q1.625-.143 2.714-1.5t.893-3zm4.268-9.678q-.357-.482-1-.795T18.768 4.1 17.5 3.875q-5.196-.84-10.107.036-.768.126-1.18.215t-.98.393-.894.768q.535.5 1.356.813t1.313.392 1.562.205q4.07.518 8 .018 1.125-.143 1.598-.214t1.295-.383 1.34-.83zm1.017 18.482q-.142.464-.276 1.366t-.25 1.5-.51 1.25-1.035 1.01q-1.537.856-3.385 1.276t-3.607.393-3.598-.33q-.82-.143-1.455-.32T6.34 29.43t-1.305-.777-.93-1.098Q3.66 25.84 3.09 22.34l.107-.285.32-.16q3.983 2.642 9.046 2.642t9.064-2.643q.375.107.43.41t-.09.805-.143.66zm3.234-17.16q-.464 2.98-1.982 11.695-.09.536-.482 1t-.777.714-.973.554q-4.5 2.25-10.893 1.572-4.43-.482-7.036-2.482-.267-.214-.454-.473t-.304-.625-.16-.607-.108-.705-.098-.625q-.16-.893-.473-2.68t-.5-2.883-.42-2.634T0 5.608q.054-.465.313-.867t.563-.67.804-.535.82-.402.858-.33q2.232-.82 5.59-1.143 6.767-.66 12.07.893 2.768.82 3.84 2.18.285.356.294.91t-.098.964z"/></svg>