<svg xmlns="http://www.w3.org/2000/svg" width="32" height="32" viewBox="0 0 27 32"><path d="M18.286 16q0-1.893-1.34-3.232t-3.23-1.34-3.233 1.34T9.143 16t1.34 3.232 3.232 1.34 3.232-1.34T18.287 16zm9.143-1.946v3.964q0 .214-.144.41t-.357.233l-3.305.5q-.34.965-.696 1.626.624.893 1.91 2.464.18.214.18.446t-.162.41q-.482.662-1.768 1.93t-1.68 1.268q-.213 0-.463-.16l-2.464-1.93q-.786.41-1.625.68-.286 2.428-.518 3.32-.125.5-.643.5h-3.964q-.25 0-.438-.152t-.205-.384l-.5-3.286q-.875-.286-1.607-.66l-2.518 1.91q-.18.16-.446.16-.25 0-.447-.195-2.25-2.036-2.946-3-.125-.18-.125-.41 0-.215.143-.412.268-.375.91-1.188t.965-1.26q-.482-.892-.732-1.767L.52 18.588q-.232-.036-.375-.223t-.143-.42V13.98q0-.213.143-.41t.34-.232l3.32-.5q.25-.82.696-1.643-.713-1.018-1.91-2.464-.18-.213-.18-.428 0-.18.162-.41.464-.644 1.76-1.92t1.687-1.278q.23 0 .463.18l2.464 1.91q.786-.41 1.625-.68.286-2.428.518-3.32.125-.5.643-.5h3.964q.25 0 .438.152t.205.384l.5 3.286q.875.286 1.607.66l2.536-1.91q.16-.16.43-.16.23 0 .445.178Q24.162 7 24.804 7.91q.125.143.125.393 0 .214-.144.41-.268.376-.91 1.19t-.965 1.258q.465.894.733 1.75l3.268.5q.233.037.376.224t.143.42z"/></svg>