<svg xmlns="http://www.w3.org/2000/svg" width="32" height="32" viewBox="0 0 34 32"><path d="M32 17.714V2.857q0-.232-.17-.402t-.402-.17H2.858q-.233 0-.403.17t-.17.402v14.857q0 .232.17.402t.402.17h28.57q.233 0 .403-.17t.17-.402zm2.286-14.857v19.43q0 1.178-.84 2.017t-2.017.84h-9.715q0 .66.286 1.383t.572 1.268.286.777q0 .464-.34.804t-.803.34h-9.143q-.464 0-.804-.34t-.34-.804q0-.25.287-.786t.57-1.25.287-1.393H2.858q-1.18 0-2.018-.84T0 22.287V2.856Q0 1.68.84.84T2.858 0h28.57q1.18 0 2.02.84t.838 2.017z"/></svg>