<svg xmlns="http://www.w3.org/2000/svg" width="32" height="32" viewBox="0 0 32 32"><path d="M32 12.68v14.178q0 1.18-.84 2.018t-2.017.84H2.857q-1.18 0-2.018-.84T0 26.858v-14.18q.786.876 1.804 1.555 6.464 4.393 8.875 6.16 1.017.75 1.65 1.17t1.69.858 1.963.44h.036q.91 0 1.963-.44t1.688-.856 1.653-1.17q3.036-2.196 8.893-6.16 1.018-.697 1.786-1.555zm0-5.25q0 1.41-.875 2.695t-2.18 2.196q-6.713 4.662-8.356 5.805-.18.125-.76.545t-.964.68-.93.58-1.026.48-.893.162h-.036q-.41 0-.892-.16t-1.027-.483-.928-.58-.964-.68-.76-.545q-1.624-1.143-4.678-3.26t-3.66-2.544Q1.96 11.57.98 10.26T-.002 7.82q0-1.393.74-2.32t2.117-.93H29.14q1.162 0 2.01.84t.848 2.017z"/></svg>