<svg xmlns="http://www.w3.org/2000/svg" width="32" height="32" viewBox="0 0 27 32"><path d="M13.714 2.286q3.732 0 6.884 1.84t4.99 4.99T27.43 16t-1.84 6.884-4.99 4.99-6.884 1.84-6.884-1.84-4.99-4.99T0 16t1.84-6.884 4.99-4.99 6.884-1.84zM16 24.554V21.16q0-.25-.16-.42t-.394-.17h-3.43q-.23 0-.41.18t-.18.41v3.394q0 .232.18.41t.41.18h3.43q.232 0 .393-.17t.16-.42zm-.036-6.143l.32-11.088q0-.214-.178-.32-.18-.144-.43-.144H11.75q-.25 0-.43.143-.178.108-.178.322l.304 11.09q0 .178.18.312t.428.134h3.304q.25 0 .42-.134t.188-.313z"/></svg>