<svg xmlns="http://www.w3.org/2000/svg" width="32" height="32" viewBox="0 0 34 32"><path d="M6.857 28.57v-2.285q0-.464-.34-.804t-.803-.338H3.428q-.464 0-.804.34t-.34.803v2.286q0 .465.34.805t.804.34h2.286q.464 0 .804-.34t.34-.804zm0-6.856v-2.286q0-.464-.34-.804t-.803-.34H3.428q-.464 0-.804.34t-.34.804v2.286q0 .464.34.804t.804.34h2.286q.464 0 .804-.34t.34-.804zm0-6.857V12.57q0-.463-.34-.803t-.803-.34H3.428q-.464 0-.804.34t-.34.804v2.287q0 .464.34.804t.804.34h2.286q.464 0 .804-.34t.34-.803zM25.143 28.57V19.43q0-.464-.34-.804t-.803-.34H10.286q-.464 0-.804.34t-.34.804v9.143q0 .465.34.805t.804.34H24q.464 0 .804-.34t.34-.804zM6.857 8V5.714q0-.464-.34-.804t-.803-.34H3.428q-.464 0-.804.34t-.34.804V8q0 .464.34.804t.804.34h2.286q.464 0 .804-.34T6.858 8zM32 28.57v-2.285q0-.464-.34-.804t-.803-.338H28.57q-.463 0-.803.34t-.34.803v2.286q0 .465.34.805t.804.34h2.287q.464 0 .804-.34t.34-.804zm-6.857-13.713V5.714q0-.464-.34-.804T24 4.57H10.286q-.464 0-.804.34t-.34.804v9.143q0 .464.34.804t.804.34H24q.464 0 .804-.34t.34-.803zM32 21.714v-2.286q0-.464-.34-.804t-.803-.34H28.57q-.463 0-.803.34t-.34.804v2.286q0 .464.34.804t.804.34h2.287q.464 0 .804-.34t.34-.804zm0-6.857V12.57q0-.463-.34-.803t-.803-.34H28.57q-.463 0-.803.34t-.34.804v2.287q0 .464.34.804t.804.34h2.287q.464 0 .804-.34t.34-.803zM32 8V5.714q0-.464-.34-.804t-.803-.34H28.57q-.463 0-.803.34t-.34.804V8q0 .464.34.804t.804.34h2.287q.464 0 .804-.34T32 8zm2.286-2.857v24q0 1.18-.84 2.018T31.43 32H2.857q-1.18 0-2.018-.84T0 29.144v-24q0-1.18.84-2.018t2.018-.84h28.57q1.18 0 2.02.84t.838 2.018z"/></svg>