<svg xmlns="http://www.w3.org/2000/svg" width="32" height="32" viewBox="0 0 27 32"><path d="M27.43 16q0 4.482-2.617 8.063t-6.76 4.955q-.48.09-.704-.125t-.224-.536V24.59q0-1.733-.93-2.537 1.02-.107 1.83-.32t1.68-.697 1.446-1.188.946-1.875.366-2.688q0-2.16-1.41-3.68.66-1.624-.144-3.642-.5-.16-1.446.196t-1.643.785l-.678.43q-1.66-.465-3.43-.465t-3.428.464q-.286-.196-.76-.482t-1.49-.688-1.536-.24q-.786 2.017-.125 3.642-1.41 1.518-1.41 3.68 0 1.517.365 2.678t.938 1.875 1.438 1.195 1.68.696 1.83.322q-.715.643-.876 1.84-.375.178-.804.267t-1.018.088-1.17-.384-.99-1.116q-.34-.57-.867-.93t-.885-.428l-.357-.054q-.375 0-.518.08t-.09.205.162.25.232.215l.125.09q.392.178.776.678t.563.91l.178.412q.232.68.786 1.098t1.196.536 1.24.124.992-.063l.41-.07q0 .68.01 1.59t.01.963q0 .32-.233.536t-.715.124q-4.143-1.375-6.76-4.955T0 15.995q0-3.732 1.84-6.884t4.99-4.99 6.884-1.84 6.884 1.84 4.99 4.99 1.84 6.884z"/></svg>