<svg xmlns="http://www.w3.org/2000/svg" width="32" height="32" viewBox="0 0 34 32"><path d="M10.59 16q-2.894.09-4.733 2.286H3.464Q2 18.286 1 17.563t-1-2.116q0-6.304 2.214-6.304.107 0 .777.375t1.742.76 2.125.383q1.196 0 2.375-.41-.09.66-.09 1.18 0 2.48 1.447 4.57zm19.124 11.375q0 2.143-1.304 3.384T24.946 32H9.34q-2.162 0-3.465-1.24T4.57 27.374q0-.946.064-1.848t.25-1.946.473-1.937.768-1.74 1.107-1.447T8.76 17.5t1.99-.356q.18 0 .768.384t1.304.857 1.91.857 2.412.384 2.41-.384 1.912-.857 1.304-.857.768-.384q1.09 0 1.99.357t1.528.956 1.107 1.446.768 1.74.474 1.94.25 1.945.063 1.848zM11.43 4.57q0 1.894-1.34 3.233t-3.232 1.34-3.232-1.34-1.34-3.232 1.34-3.23T6.858 0t3.232 1.34 1.34 3.23zM24 11.43q0 2.838-2.01 4.847t-4.847 2.01-4.848-2.01-2.01-4.848 2.01-4.85 4.848-2.008 4.848 2.01T24 11.428zm10.286 4.016q0 1.393-1 2.116t-2.464.723H28.43Q26.59 16.09 23.696 16q1.446-2.09 1.446-4.572 0-.518-.09-1.18 1.18.412 2.376.412 1.053 0 2.124-.384t1.74-.76.778-.374q2.214 0 2.214 6.304zM32 4.57q0 1.894-1.34 3.233t-3.23 1.34-3.233-1.34-1.34-3.232 1.34-3.23T27.43 0t3.23 1.34T32 4.57z"/></svg>