<svg xmlns="http://www.w3.org/2000/svg" width="32" height="32" viewBox="0 0 30 32"><path d="M25.143 17.714v8.57q0 .465-.34.805t-.803.338h-6.857V20.57h-4.57v6.858H5.714q-.464 0-.804-.34t-.338-.803v-8.57q0-.02.01-.055t.008-.054l10.268-8.464 10.268 8.464q.018.036.018.107zm3.982-1.232l-1.107 1.32q-.143.162-.375.197h-.054q-.233 0-.376-.126L14.857 7.57 2.5 17.874q-.214.143-.43.125-.23-.037-.374-.197L.59 16.483q-.144-.18-.126-.42t.196-.385L13.5 4.982q.57-.464 1.356-.464t1.357.464l4.357 3.643V5.143q0-.25.16-.41t.412-.162h3.43q.25 0 .41.162t.16.41v7.287l3.912 3.25q.18.142.196.383t-.125.42z"/></svg>