<svg xmlns="http://www.w3.org/2000/svg"><symbol viewBox="0 0 25 32" id="icon-bitbucket"><title>bitbucket</title><path d="M14.554 15.34q.143 1.124-.902 1.803t-1.99.107q-.697-.304-.956-1.036t-.01-1.464.93-1.036q.643-.32 1.295-.214t1.144.634.49 1.205zm1.982-.376q-.25-1.91-2.018-2.93T11 11.805q-1.125.5-1.795 1.58t-.616 2.312q.07 1.625 1.383 2.768t2.955 1q1.625-.143 2.714-1.5t.893-3zm4.268-9.678q-.357-.482-1-.795T18.768 4.1 17.5 3.875q-5.196-.84-10.107.036-.768.126-1.18.215t-.98.393-.894.768q.535.5 1.356.813t1.313.392 1.562.205q4.07.518 8 .018 1.125-.143 1.598-.214t1.295-.383 1.34-.83zm1.017 18.482q-.142.464-.276 1.366t-.25 1.5-.51 1.25-1.035 1.01q-1.537.856-3.385 1.276t-3.607.393-3.598-.33q-.82-.143-1.455-.32T6.34 29.43t-1.305-.777-.93-1.098Q3.66 25.84 3.09 22.34l.107-.285.32-.16q3.983 2.642 9.046 2.642t9.064-2.643q.375.107.43.41t-.09.805-.143.66zm3.234-17.16q-.464 2.98-1.982 11.695-.09.536-.482 1t-.777.714-.973.554q-4.5 2.25-10.893 1.572-4.43-.482-7.036-2.482-.267-.214-.454-.473t-.304-.625-.16-.607-.108-.705-.098-.625q-.16-.893-.473-2.68t-.5-2.883-.42-2.634T0 5.608q.054-.465.313-.867t.563-.67.804-.535.82-.402.858-.33q2.232-.82 5.59-1.143 6.767-.66 12.07.893 2.768.82 3.84 2.18.285.356.294.91t-.098.964z"/></symbol><symbol viewBox="0 0 27 32" id="icon-cog"><title>cog</title><path d="M18.286 16q0-1.893-1.34-3.232t-3.23-1.34-3.233 1.34T9.143 16t1.34 3.232 3.232 1.34 3.232-1.34T18.287 16zm9.143-1.946v3.964q0 .214-.144.41t-.357.233l-3.305.5q-.34.965-.696 1.626.624.893 1.91 2.464.18.214.18.446t-.162.41q-.482.662-1.768 1.93t-1.68 1.268q-.213 0-.463-.16l-2.464-1.93q-.786.41-1.625.68-.286 2.428-.518 3.32-.125.5-.643.5h-3.964q-.25 0-.438-.152t-.205-.384l-.5-3.286q-.875-.286-1.607-.66l-2.518 1.91q-.18.16-.446.16-.25 0-.447-.195-2.25-2.036-2.946-3-.125-.18-.125-.41 0-.215.143-.412.268-.375.91-1.188t.965-1.26q-.482-.892-.732-1.767L.52 18.588q-.232-.036-.375-.223t-.143-.42V13.98q0-.213.143-.41t.34-.232l3.32-.5q.25-.82.696-1.643-.713-1.018-1.91-2.464-.18-.213-.18-.428 0-.18.162-.41.464-.644 1.76-1.92t1.687-1.278q.23 0 .463.18l2.464 1.91q.786-.41 1.625-.68.286-2.428.518-3.32.125-.5.643-.5h3.964q.25 0 .438.152t.205.384l.5 3.286q.875.286 1.607.66l2.536-1.91q.16-.16.43-.16.23 0 .445.178Q24.162 7 24.804 7.91q.125.143.125.393 0 .214-.144.41-.268.376-.91 1.19t-.965 1.258q.465.894.733 1.75l3.268.5q.233.037.376.224t.143.42z"/></symbol><symbol viewBox="0 0 34 32" id="icon-credit"><title>credit</title><path d="M31.43 2.286q1.178 0 2.017.84t.84 2.017v21.714q0 1.18-.84 2.018t-2.018.84H2.857q-1.18 0-2.018-.84T0 26.857V5.143q0-1.18.84-2.018t2.018-.84h28.57zM2.856 4.57q-.232 0-.402.17t-.17.403v4H32v-4q0-.232-.17-.402t-.403-.17H2.857zM31.43 27.43q.23 0 .4-.17t.17-.403V16H2.288v10.857q0 .232.17.402t.402.17h28.57zM4.57 25.142v-2.286h4.572v2.286h-4.57zm6.86 0v-2.286h6.856v2.286H11.43z"/></symbol><symbol viewBox="0 0 32 32" id="icon-css3"><title>css3</title><path d="M4.91 2.286h26.876l-4.75 23.804-14.357 4.768L.214 26.09l1.268-6.357h5.304l-.518 2.625 7.535 2.875 8.68-2.875 1.213-6.054H2.128L3.162 11h21.59l.678-3.41H3.86z"/></symbol><symbol viewBox="0 0 34 32" id="icon-desktop"><title>desktop</title><path d="M32 17.714V2.857q0-.232-.17-.402t-.402-.17H2.858q-.233 0-.403.17t-.17.402v14.857q0 .232.17.402t.402.17h28.57q.233 0 .403-.17t.17-.402zm2.286-14.857v19.43q0 1.178-.84 2.017t-2.017.84h-9.715q0 .66.286 1.383t.572 1.268.286.777q0 .464-.34.804t-.803.34h-9.143q-.464 0-.804-.34t-.34-.804q0-.25.287-.786t.57-1.25.287-1.393H2.858q-1.18 0-2.018-.84T0 22.287V2.856Q0 1.68.84.84T2.858 0h28.57q1.18 0 2.02.84t.838 2.017z"/></symbol><symbol viewBox="0 0 27 32" id="icon-edit"><title>edit</title><path d="M6.482 27.43l1.625-1.626-4.196-4.196-1.624 1.625v1.91h2.286v2.287h1.91zm9.34-16.573q0-.393-.394-.393-.18 0-.304.125l-9.68 9.678q-.124.125-.124.304 0 .393.393.393.18 0 .304-.125l9.68-9.68q.124-.124.124-.303zm-.965-3.428l7.43 7.428L7.428 29.715H0v-7.43zm12.197 1.713q0 .946-.66 1.607l-2.965 2.964L16 6.284l2.964-2.945q.643-.68 1.607-.68.947 0 1.626.68l4.196 4.178q.66.696.66 1.625z"/></symbol><symbol viewBox="0 0 32 32" id="icon-envelope-alt"><title>envelope-alt</title><path d="M32 12.68v14.178q0 1.18-.84 2.018t-2.017.84H2.857q-1.18 0-2.018-.84T0 26.858v-14.18q.786.876 1.804 1.555 6.464 4.393 8.875 6.16 1.017.75 1.65 1.17t1.69.858 1.963.44h.036q.91 0 1.963-.44t1.688-.856 1.653-1.17q3.036-2.196 8.893-6.16 1.018-.697 1.786-1.555zm0-5.25q0 1.41-.875 2.695t-2.18 2.196q-6.713 4.662-8.356 5.805-.18.125-.76.545t-.964.68-.93.58-1.026.48-.893.162h-.036q-.41 0-.892-.16t-1.027-.483-.928-.58-.964-.68-.76-.545q-1.624-1.143-4.678-3.26t-3.66-2.544Q1.96 11.57.98 10.26T-.002 7.82q0-1.393.74-2.32t2.117-.93H29.14q1.162 0 2.01.84t.848 2.017z"/></symbol><symbol viewBox="0 0 32 32" id="icon-envelope"><title>envelope</title><path d="M29.714 26.857V13.143q-.57.643-1.232 1.18-4.786 3.678-7.607 6.035-.91.768-1.482 1.196t-1.545.866-1.83.438h-.036q-.857 0-1.83-.438t-1.545-.866-1.482-1.196Q8.305 18 3.518 14.322q-.66-.536-1.232-1.18v13.715q0 .232.17.402t.402.17h26.286q.232 0 .402-.17t.17-.403zm0-18.768v-.44l-.01-.23-.053-.224-.097-.16-.16-.135-.25-.044H2.855q-.232 0-.402.17t-.17.402q0 3 2.625 5.07 3.445 2.715 7.16 5.662.107.09.625.527t.82.67.796.563.903.49.768.162h.037q.357 0 .768-.16t.902-.492.795-.563.82-.67.626-.527q3.714-2.946 7.16-5.66.965-.77 1.796-2.064t.83-2.348zM32 7.43v19.428q0 1.18-.84 2.018t-2.017.84H2.857q-1.18 0-2.018-.84T0 26.858V7.428Q0 6.25.84 5.412t2.017-.838h26.286q1.18 0 2.018.84T32 7.428z"/></symbol><symbol viewBox="0 0 27 32" id="icon-exclamation-sign"><title>exclamation-sign</title><path d="M13.714 2.286q3.732 0 6.884 1.84t4.99 4.99T27.43 16t-1.84 6.884-4.99 4.99-6.884 1.84-6.884-1.84-4.99-4.99T0 16t1.84-6.884 4.99-4.99 6.884-1.84zM16 24.554V21.16q0-.25-.16-.42t-.394-.17h-3.43q-.23 0-.41.18t-.18.41v3.394q0 .232.18.41t.41.18h3.43q.232 0 .393-.17t.16-.42zm-.036-6.143l.32-11.088q0-.214-.178-.32-.18-.144-.43-.144H11.75q-.25 0-.43.143-.178.108-.178.322l.304 11.09q0 .178.18.312t.428.134h3.304q.25 0 .42-.134t.188-.313z"/></symbol><symbol viewBox="0 0 34 32" id="icon-film"><title>film</title><path d="M6.857 28.57v-2.285q0-.464-.34-.804t-.803-.338H3.428q-.464 0-.804.34t-.34.803v2.286q0 .465.34.805t.804.34h2.286q.464 0 .804-.34t.34-.804zm0-6.856v-2.286q0-.464-.34-.804t-.803-.34H3.428q-.464 0-.804.34t-.34.804v2.286q0 .464.34.804t.804.34h2.286q.464 0 .804-.34t.34-.804zm0-6.857V12.57q0-.463-.34-.803t-.803-.34H3.428q-.464 0-.804.34t-.34.804v2.287q0 .464.34.804t.804.34h2.286q.464 0 .804-.34t.34-.803zM25.143 28.57V19.43q0-.464-.34-.804t-.803-.34H10.286q-.464 0-.804.34t-.34.804v9.143q0 .465.34.805t.804.34H24q.464 0 .804-.34t.34-.804zM6.857 8V5.714q0-.464-.34-.804t-.803-.34H3.428q-.464 0-.804.34t-.34.804V8q0 .464.34.804t.804.34h2.286q.464 0 .804-.34T6.858 8zM32 28.57v-2.285q0-.464-.34-.804t-.803-.338H28.57q-.463 0-.803.34t-.34.803v2.286q0 .465.34.805t.804.34h2.287q.464 0 .804-.34t.34-.804zm-6.857-13.713V5.714q0-.464-.34-.804T24 4.57H10.286q-.464 0-.804.34t-.34.804v9.143q0 .464.34.804t.804.34H24q.464 0 .804-.34t.34-.803zM32 21.714v-2.286q0-.464-.34-.804t-.803-.34H28.57q-.463 0-.803.34t-.34.804v2.286q0 .464.34.804t.804.34h2.287q.464 0 .804-.34t.34-.804zm0-6.857V12.57q0-.463-.34-.803t-.803-.34H28.57q-.463 0-.803.34t-.34.804v2.287q0 .464.34.804t.804.34h2.287q.464 0 .804-.34t.34-.803zM32 8V5.714q0-.464-.34-.804t-.803-.34H28.57q-.463 0-.803.34t-.34.804V8q0 .464.34.804t.804.34h2.287q.464 0 .804-.34T32 8zm2.286-2.857v24q0 1.18-.84 2.018T31.43 32H2.857q-1.18 0-2.018-.84T0 29.144v-24q0-1.18.84-2.018t2.018-.84h28.57q1.18 0 2.02.84t.838 2.018z"/></symbol><symbol viewBox="0 0 27 32" id="icon-github"><title>github</title><path d="M27.43 16q0 4.482-2.617 8.063t-6.76 4.955q-.48.09-.704-.125t-.224-.536V24.59q0-1.733-.93-2.537 1.02-.107 1.83-.32t1.68-.697 1.446-1.188.946-1.875.366-2.688q0-2.16-1.41-3.68.66-1.624-.144-3.642-.5-.16-1.446.196t-1.643.785l-.678.43q-1.66-.465-3.43-.465t-3.428.464q-.286-.196-.76-.482t-1.49-.688-1.536-.24q-.786 2.017-.125 3.642-1.41 1.518-1.41 3.68 0 1.517.365 2.678t.938 1.875 1.438 1.195 1.68.696 1.83.322q-.715.643-.876 1.84-.375.178-.804.267t-1.018.088-1.17-.384-.99-1.116q-.34-.57-.867-.93t-.885-.428l-.357-.054q-.375 0-.518.08t-.09.205.162.25.232.215l.125.09q.392.178.776.678t.563.91l.178.412q.232.68.786 1.098t1.196.536 1.24.124.992-.063l.41-.07q0 .68.01 1.59t.01.963q0 .32-.233.536t-.715.124q-4.143-1.375-6.76-4.955T0 15.995q0-3.732 1.84-6.884t4.99-4.99 6.884-1.84 6.884 1.84 4.99 4.99 1.84 6.884z"/></symbol><symbol viewBox="0 0 34 32" id="icon-group"><title>group</title><path d="M10.59 16q-2.894.09-4.733 2.286H3.464Q2 18.286 1 17.563t-1-2.116q0-6.304 2.214-6.304.107 0 .777.375t1.742.76 2.125.383q1.196 0 2.375-.41-.09.66-.09 1.18 0 2.48 1.447 4.57zm19.124 11.375q0 2.143-1.304 3.384T24.946 32H9.34q-2.162 0-3.465-1.24T4.57 27.374q0-.946.064-1.848t.25-1.946.473-1.937.768-1.74 1.107-1.447T8.76 17.5t1.99-.356q.18 0 .768.384t1.304.857 1.91.857 2.412.384 2.41-.384 1.912-.857 1.304-.857.768-.384q1.09 0 1.99.357t1.528.956 1.107 1.446.768 1.74.474 1.94.25 1.945.063 1.848zM11.43 4.57q0 1.894-1.34 3.233t-3.232 1.34-3.232-1.34-1.34-3.232 1.34-3.23T6.858 0t3.232 1.34 1.34 3.23zM24 11.43q0 2.838-2.01 4.847t-4.847 2.01-4.848-2.01-2.01-4.848 2.01-4.85 4.848-2.008 4.848 2.01T24 11.428zm10.286 4.016q0 1.393-1 2.116t-2.464.723H28.43Q26.59 16.09 23.696 16q1.446-2.09 1.446-4.572 0-.518-.09-1.18 1.18.412 2.376.412 1.053 0 2.124-.384t1.74-.76.778-.374q2.214 0 2.214 6.304zM32 4.57q0 1.894-1.34 3.233t-3.23 1.34-3.233-1.34-1.34-3.232 1.34-3.23T27.43 0t3.23 1.34T32 4.57z"/></symbol><symbol viewBox="0 0 30 32" id="icon-home"><title>home</title><path d="M25.143 17.714v8.57q0 .465-.34.805t-.803.338h-6.857V20.57h-4.57v6.858H5.714q-.464 0-.804-.34t-.338-.803v-8.57q0-.02.01-.055t.008-.054l10.268-8.464 10.268 8.464q.018.036.018.107zm3.982-1.232l-1.107 1.32q-.143.162-.375.197h-.054q-.233 0-.376-.126L14.857 7.57 2.5 17.874q-.214.143-.43.125-.23-.037-.374-.197L.59 16.483q-.144-.18-.126-.42t.196-.385L13.5 4.982q.57-.464 1.356-.464t1.357.464l4.357 3.643V5.143q0-.25.16-.41t.412-.162h3.43q.25 0 .41.162t.16.41v7.287l3.912 3.25q.18.142.196.383t-.125.42z"/></symbol><symbol viewBox="0 0 25 32" id="icon-html5"><title>html5</title><path d="M20.18 10.66l.285-3.124H4.68l.838 9.536h10.93l-.394 4.07-3.518.947-3.5-.947-.232-2.5H5.68l.392 4.964 6.464 1.786h.07v-.018l6.412-1.768.893-9.714H8.41l-.267-3.232H20.18zM0 2.287h25.143l-2.286 25.68-10.32 2.892-10.25-2.893z"/></symbol><symbol viewBox="0 0 27 32" id="icon-linkedin-sign"><title>linkedin-sign</title><path d="M4.232 25.25h4.125V12.857H4.232V25.25zM8.625 9.036q-.018-.93-.643-1.536t-1.66-.607-1.69.607-.65 1.536q0 .91.633 1.527t1.652.616h.018q1.054 0 1.696-.617t.644-1.527zM19.07 25.25h4.126v-7.107q0-2.75-1.304-4.16t-3.446-1.412q-2.43 0-3.732 2.09h.036v-1.804h-4.125q.054 1.18 0 12.393h4.125v-6.93q0-.68.125-1 .268-.625.804-1.063T17 15.82q2.07 0 2.07 2.803v6.625zm8.36-17.82V24.57q0 2.125-1.51 3.634t-3.634 1.51H5.143q-2.125 0-3.634-1.51T0 24.572V7.43q0-2.126 1.51-3.635t3.633-1.51h17.143q2.125 0 3.634 1.51t1.51 3.634z"/></symbol><symbol viewBox="0 0 27 32" id="icon-linkedin"><title>linkedin</title><path d="M6.232 11.16v17.697H.34V11.16H6.23zm.375-5.464Q6.625 7 5.705 7.876t-2.42.874H3.25q-1.465 0-2.358-.875T0 5.695q0-1.32.92-2.187t2.4-.866 2.376.866.91 2.188zM27.43 18.714v10.143h-5.876v-9.464q0-1.875-.723-2.938t-2.258-1.063q-1.125 0-1.884.616t-1.134 1.527q-.196.536-.196 1.446v9.876H9.483q.036-7.125.036-11.554t-.02-5.286l-.017-.857h5.875v2.57h-.036q.357-.57.732-1t1.01-.93 1.553-.776 2.045-.277q3.054 0 4.91 2.027t1.858 5.938z"/></symbol><symbol viewBox="0 0 21 32" id="icon-lock"><title>lock</title><path d="M5.714 13.714h9.143v-3.43q0-1.892-1.34-3.23t-3.23-1.34-3.233 1.34-1.34 3.23v3.43zM20.57 15.43v10.285q0 .714-.5 1.214t-1.213.5H1.714Q1 27.43.5 26.93T0 25.714V15.43q0-.715.5-1.215t1.214-.5h.57v-3.43q0-3.285 2.358-5.642t5.643-2.357 5.643 2.357 2.357 5.643v3.43h.57q.715 0 1.215.5t.5 1.213z"/></symbol><symbol viewBox="0 0 25 32" id="icon-minus"><title>minus</title><path d="M25.143 13.143v3.43q0 .713-.5 1.213t-1.214.5H1.714q-.714 0-1.214-.5T0 16.572v-3.43q0-.713.5-1.213t1.215-.5H23.43q.713 0 1.213.5t.5 1.213z"/></symbol><symbol viewBox="0 0 14 32" id="icon-mobile"><title>mobile</title><path d="M8.286 25.143q0-.59-.42-1.01t-1.01-.42-1.008.42-.42 1.01.42 1.01 1.01.42 1.008-.42.42-1.01zM12 22.286V9.716q0-.233-.17-.403t-.402-.17H2.285q-.232 0-.402.17t-.17.402v12.57q0 .233.17.403t.402.17h9.143q.232 0 .402-.17t.17-.402zM8.57 7.143q0-.286-.285-.286H5.428q-.286 0-.286.286t.286.286h2.857q.286 0 .286-.287zm5.144-.286v18.286q0 .93-.68 1.607t-1.606.68H2.285q-.93 0-1.607-.68t-.68-1.607V6.857q0-.93.68-1.607t1.607-.68h9.143q.93 0 1.607.68t.68 1.607z"/></symbol><symbol viewBox="0 0 32 32" id="icon-ok"><title>ok</title><path d="M29.84 10.107q0 .714-.5 1.214L13.98 26.68q-.5.5-1.214.5t-1.214-.5L2.66 17.785q-.5-.5-.5-1.214t.5-1.213l2.43-2.43q.5-.5 1.214-.5t1.214.5l5.25 5.27L24.482 6.463q.5-.5 1.214-.5t1.214.5l2.43 2.43q.5.5.5 1.213z"/></symbol><symbol viewBox="0 0 512 512" id="icon-open-id"><title>open-id</title><g fill="none" fill-rule="evenodd"><g fill="#000"><path d="M36.015 300.682c-.27-17.052 3.047-32.818 9.954-47.3 6.906-14.48 15.98-26.524 27.22-36.133 11.24-9.61 23.7-18.136 37.378-25.58 13.678-7.442 27.356-13.262 41.034-17.457 13.678-4.195 26.205-7.646 37.58-10.353 11.376-2.707 20.585-4.466 27.627-5.278l10.563-1.218v49.938c-15.44 1.083-29.59 3.722-42.456 7.917-12.866 4.194-23.362 9.134-31.487 14.818-8.126 5.684-15.303 11.842-21.533 18.473-6.23 6.632-10.97 13.128-14.22 19.49-3.25 6.36-5.823 12.11-7.72 17.254-1.895 5.143-2.978 9.338-3.25 12.586l-.812 4.872c-.812 4.06-1.22 8.12-1.22 12.18 0 5.955.95 11.64 2.845 17.052 3.25 9.203 8.397 17.052 15.44 23.548 7.04 6.496 15.03 12.518 23.97 18.067 8.938 5.548 18.147 10.014 27.626 13.397 9.48 3.383 18.148 6.293 26.002 8.73 7.855 2.435 14.22 4.194 19.095 5.277l7.72 1.218V444c-26.273-2.707-50.04-7.443-71.302-14.21-21.26-6.767-38.393-14.413-51.394-22.94-13-8.525-24.24-17.66-33.72-27.404s-16.387-19.285-20.72-28.623c-4.335-9.338-7.652-17.73-9.955-25.172-2.3-7.442-3.588-13.465-3.858-18.066l-.407-6.902zM243.218 444V77.788L300.908 38v374.332L243.22 444zm71.505-239.946h2.03c10.293.27 20.72 2.3 31.284 6.09 11.376 4.33 20.044 8.526 26.002 12.586l8.53 6.496-33.72 13.804 127.165 31.668v-99.47l-43.472 24.766c-10.834-11.64-26.07-20.977-45.706-28.014-19.637-7.037-36.633-11.233-50.988-12.586l-21.127-2.03v46.69z"/></g></g></symbol><symbol viewBox="0 0 34 32" id="icon-picture"><title>picture</title><path d="M11.43 10.286q0 1.43-1 2.43t-2.43 1-2.43-1-1-2.43 1-2.43 2.43-1 2.43 1 1 2.43zm18.284 6.857v8H4.57v-3.43L10.286 16l2.857 2.857 9.143-9.143zM31.43 4.57H2.857q-.232 0-.402.17t-.17.403v21.714q0 .232.17.402t.402.17h28.57q.233 0 .403-.17t.17-.403V5.143q0-.232-.17-.402t-.4-.17zm2.856.573v21.714q0 1.18-.84 2.018t-2.017.84H2.857q-1.18 0-2.018-.84T0 26.857V5.143q0-1.18.84-2.018t2.018-.84h28.57q1.18 0 2.02.84t.838 2.018z"/></symbol><symbol viewBox="0 0 25 32" id="icon-plus"><title>plus</title><path class="plus" d="M25.143 13.143v3.43q0 .713-.5 1.213t-1.214.5H16v7.43q0 .713-.5 1.213t-1.214.5h-3.43q-.713 0-1.213-.5t-.5-1.215v-7.43h-7.43q-.713 0-1.213-.5T0 16.573v-3.43q0-.713.5-1.213t1.214-.5h7.43V4q0-.714.5-1.214t1.213-.5h3.43q.713 0 1.213.5T16 4v7.43h7.43q.713 0 1.213.5t.5 1.213z"/></symbol><symbol viewBox="0 0 25 32" id="icon-remove"><title>remove</title><path class="remove" d="M23.18 23.607q0 .714-.5 1.214l-2.43 2.43q-.5.5-1.214.5t-1.214-.5L12.572 22l-5.25 5.25q-.5.5-1.214.5t-1.214-.5l-2.43-2.43q-.5-.5-.5-1.213t.5-1.214l5.25-5.25-5.25-5.25q-.5-.5-.5-1.214t.5-1.215l2.43-2.43q.5-.5 1.214-.5t1.214.5l5.25 5.25 5.25-5.25q.5-.5 1.214-.5t1.214.5l2.43 2.43q.5.5.5 1.214t-.5 1.213l-5.25 5.25 5.25 5.25q.5.5.5 1.214z"/></symbol><symbol viewBox="0 0 27 32" id="icon-rss-sign"><title>rss-sign</title><path d="M9.143 22.857q0-.946-.67-1.616t-1.616-.67-1.616.67-.67 1.617.67 1.616 1.617.67 1.616-.67.67-1.616zm6.268 1.68q-.23-4.144-3.16-7.072t-7.07-3.16q-.25-.02-.43.16t-.18.41v2.287q0 .232.153.393t.384.18q2.75.195 4.714 2.16t2.162 4.714q.018.23.18.383t.392.152h2.286q.232 0 .41-.18t.162-.428zm6.858.017q-.09-2.75-1-5.313t-2.49-4.642-3.662-3.66-4.643-2.492-5.313-1q-.25-.018-.41.16-.18.18-.18.412v2.286q0 .232.16.393t.394.18q3.643.124 6.75 1.99t4.973 4.973 1.99 6.75q.02.232.18.393t.393.16h2.286q.232 0 .41-.178.197-.16.162-.41zm5.16-17.125V24.57q0 2.125-1.508 3.634t-3.634 1.51H5.143q-2.125 0-3.634-1.51T0 24.572V7.43q0-2.126 1.51-3.635t3.633-1.51h17.143q2.125 0 3.634 1.51t1.51 3.634z"/></symbol><symbol viewBox="0 0 25 32" id="icon-rss"><title>rss</title><path d="M6.857 24q0 1.43-1 2.43t-2.43 1-2.428-1T0 24t1-2.43 2.428-1 2.43 1 1 2.43zM16 26.196q.036.5-.304.857-.32.375-.84.375h-2.41q-.446 0-.768-.295t-.357-.74q-.392-4.09-3.294-6.992t-6.99-3.294q-.447-.036-.742-.357T0 14.98v-2.41q0-.518.374-.84.304-.303.768-.303h.09q2.856.232 5.463 1.438t4.625 3.24q2.036 2.02 3.24 4.626T16 26.196zm9.143.036q.036.482-.32.84-.322.356-.822.356h-2.553q-.464 0-.795-.313t-.348-.76q-.214-3.838-1.804-7.294t-4.134-6-6-4.133-7.295-1.82q-.445-.02-.758-.35T0 5.982V3.428q0-.5.356-.82.32-.322.786-.322h.054q4.68.232 8.955 2.143t7.6 5.25q3.338 3.32 5.25 7.598t2.142 8.955z"/></symbol><symbol viewBox="0 0 27 32" id="icon-save"><title>save</title><path d="M6.857 27.43H20.57V20.57H6.858v6.857zm16 0h2.286v-16q0-.25-.18-.69t-.356-.615L19.59 5.107q-.18-.18-.608-.357t-.696-.18V12q0 .714-.5 1.214t-1.214.5H6.286q-.714 0-1.214-.5T4.572 12V4.57H2.286V27.43h2.286v-7.43q0-.713.5-1.213t1.214-.5h14.857q.714 0 1.214.5t.5 1.214v7.428zM16 10.856V5.143q0-.232-.17-.402t-.402-.17h-3.43q-.23 0-.4.17t-.17.403v5.714q0 .232.17.402t.4.17h3.43q.232 0 .402-.17t.17-.403zm11.43.572V28q0 .714-.5 1.214t-1.215.5h-24q-.714 0-1.214-.5T0 28V4q0-.714.5-1.214t1.215-.5h16.57q.715 0 1.572.357t1.357.857l5 5q.5.5.857 1.357t.358 1.57z"/></symbol><symbol viewBox="0 0 28 32" id="icon-spinner"><title>spinner</title><path d="M8.857 24q0 1.07-.76 1.82t-1.812.75q-1.07 0-1.82-.75T3.714 24t.75-1.82 1.82-.75q1.054 0 1.813.75t.76 1.82zm7.714 3.43q0 .945-.67 1.615t-1.615.67-1.616-.67T12 27.43t.67-1.617 1.615-.67 1.616.67.67 1.616zM5.715 16q0 1.18-.84 2.018t-2.017.84-2.018-.84T0 16t.84-2.018 2.017-.84 2.018.84.84 2.018zm18.572 8q0 .82-.59 1.41t-1.41.59-1.41-.59-.59-1.41.59-1.41 1.41-.59 1.41.59.59 1.41zM9.43 8q0 1.304-.92 2.223t-2.224.92-2.223-.92T3.143 8t.92-2.223 2.223-.92 2.223.92T9.43 8zm8.284-3.43q0 1.43-1 2.43t-2.43 1-2.428-1-1-2.43 1-2.428 2.43-1 2.428 1 1 2.43zM27.43 16q0 .714-.5 1.214t-1.215.5-1.214-.5T24 16t.5-1.214 1.215-.5 1.214.5.5 1.214zm-3.716-8q0 .59-.42 1.01t-1.01.42-1.008-.42-.42-1.01.42-1.01 1.01-.42 1.008.42.42 1.01z"/></symbol><symbol viewBox="0 0 30 32" id="icon-star-empty"><title>star-empty</title><path d="M20.304 17.93l5.464-5.305-7.536-1.107-3.375-6.82-3.375 6.82-7.536 1.107L9.41 17.93l-1.304 7.517 6.75-3.554 6.732 3.554zm9.41-6.376q0 .393-.464.857l-6.482 6.322 1.536 8.93q.018.124.018.356 0 .893-.732.893-.34 0-.714-.213l-8.018-4.214-8.018 4.214q-.393.214-.714.214-.375 0-.563-.258t-.188-.634q0-.107.036-.357l1.537-8.928-6.5-6.32Q0 11.928 0 11.553q0-.66 1-.82l8.965-1.305 4.018-8.126q.34-.732.875-.732t.875.732L19.75 9.43l8.965 1.303q1 .16 1 .82z"/></symbol><symbol viewBox="0 0 30 32" id="icon-star"><title>star</title><path d="M29.714 11.554q0 .393-.464.857l-6.482 6.322 1.536 8.93q.018.124.018.356 0 .375-.188.634t-.545.26q-.34 0-.715-.215l-8.018-4.214-8.018 4.214q-.394.214-.715.214-.375 0-.563-.258t-.188-.634q0-.107.036-.357l1.536-8.928-6.5-6.32Q0 11.928 0 11.553q0-.66 1-.82l8.964-1.305 4.018-8.126q.34-.732.875-.732t.875.732L19.75 9.43l8.964 1.303q1 .16 1 .82z"/></symbol><symbol viewBox="0 0 21 32" id="icon-tablet"><title>tablet</title><path d="M11.43 25.143q0-.464-.34-.804t-.804-.34-.804.34-.34.803.34.804.804.34.804-.34.34-.804zm6.856-2.857V5.143q0-.232-.17-.402t-.402-.17H2.857q-.232 0-.402.17t-.17.403v17.143q0 .232.17.402t.402.17h14.857q.232 0 .402-.17t.17-.402zM20.57 5.143v19.43q0 1.178-.838 2.017t-2.018.84H2.857q-1.18 0-2.018-.84T0 24.572V5.142q0-1.178.84-2.017t2.017-.84h14.857q1.18 0 2.018.84t.84 2.018z"/></symbol><symbol viewBox="0 0 27 32" id="icon-tag"><title>tag</title><path d="M8 8q0-.946-.67-1.616t-1.616-.67-1.616.67T3.428 8t.67 1.616 1.616.67 1.616-.67T8 8zm19.054 10.286q0 .946-.66 1.607l-8.77 8.786q-.695.66-1.624.66-.946 0-1.607-.66L1.625 15.892q-.68-.66-1.152-1.804T0 12V4.57q0-.928.68-1.606t1.606-.68h7.43q.945 0 2.088.474t1.82 1.152l12.77 12.75q.66.696.66 1.625z"/></symbol><symbol viewBox="0 0 34 32" id="icon-tags"><title>tags</title><path d="M8 8q0-.946-.67-1.616t-1.616-.67-1.616.67T3.428 8t.67 1.616 1.616.67 1.616-.67T8 8zm19.054 10.286q0 .946-.66 1.607l-8.77 8.786q-.695.66-1.624.66-.946 0-1.607-.66L1.625 15.892q-.68-.66-1.152-1.804T0 12V4.57q0-.928.68-1.606t1.606-.68h7.43q.945 0 2.088.474t1.82 1.152l12.77 12.75q.66.696.66 1.625zm6.857 0q0 .946-.66 1.607l-8.768 8.786q-.696.66-1.625.66-.643 0-1.054-.25t-.946-.804l8.393-8.393q.66-.66.66-1.607 0-.93-.66-1.625L16.482 3.91q-.68-.678-1.82-1.15t-2.09-.474h4q.946 0 2.09.473t1.82 1.15L33.25 16.66q.66.697.66 1.626z"/></symbol><symbol viewBox="0 0 25 32" id="icon-trash"><title>trash</title><path d="M9.143 13.143V23.43q0 .25-.16.41T8.57 24H7.43q-.25 0-.41-.16t-.162-.41V13.142q0-.25.16-.41t.412-.162H8.57q.25 0 .412.162t.16.41zm4.57 0V23.43q0 .25-.16.41t-.41.16h-1.144q-.25 0-.412-.16t-.16-.41V13.142q0-.25.16-.41t.41-.162h1.144q.25 0 .41.162t.162.41zm4.573 0V23.43q0 .25-.16.41t-.412.16H16.57q-.25 0-.41-.16t-.16-.41V13.142q0-.25.16-.41t.41-.162h1.144q.25 0 .41.162t.162.41zM20.57 26.07V9.143h-16v16.93q0 .392.126.722t.26.482.187.152H20q.054 0 .188-.152t.26-.482.124-.723zm-12-19.213h8l-.856-2.09q-.125-.16-.304-.195H9.75q-.18.036-.305.196zm16.573.572V8.57q0 .25-.16.41t-.412.162h-1.713v16.93q0 1.48-.84 2.562T20 29.716H5.143q-1.18 0-2.018-1.045t-.84-2.526v-17H.573q-.25 0-.41-.16T0 8.57V7.43q0-.25.16-.412t.412-.16H6.09l1.25-2.983q.268-.66.964-1.125t1.41-.464h5.715q.713 0 1.41.464t.964 1.125l1.25 2.982h5.518q.25 0 .41.16t.162.412z"/></symbol><symbol viewBox="0 0 30 32" id="icon-twitter"><title>twitter</title><path d="M28.93 7.286q-1.197 1.75-2.894 2.982.018.25.018.75 0 2.32-.68 4.634t-2.062 4.437-3.295 3.758-4.607 2.607-5.768.973q-4.84 0-8.857-2.59.625.072 1.393.072 4.018 0 7.16-2.464-1.874-.036-3.356-1.152t-2.036-2.848q.59.09 1.09.09.767 0 1.517-.197-2-.412-3.313-1.992t-1.313-3.67v-.07q1.214.678 2.607.73-1.18-.785-1.875-2.053t-.697-2.75q0-1.57.786-2.91 2.16 2.66 5.258 4.258t6.634 1.777q-.143-.68-.143-1.32 0-2.394 1.687-4.08t4.08-1.69q2.5 0 4.214 1.822Q26.428 6.017 28.143 5q-.66 2.053-2.536 3.178 1.66-.18 3.32-.893z"/></symbol><symbol viewBox="0 0 32 32" id="icon-warning-sign"><title>warning-sign</title><path d="M18.286 24.554V21.16q0-.25-.17-.42t-.402-.17h-3.43q-.23 0-.4.17t-.17.42v3.394q0 .25.17.42t.4.17h3.43q.232 0 .402-.17t.17-.42zm-.036-6.68l.32-8.195q0-.215-.178-.34-.232-.196-.43-.196h-3.928q-.196 0-.43.196-.178.125-.178.375l.304 8.16q0 .18.18.296t.428.117h3.304q.25 0 .42-.116t.188-.294zM18 1.197L31.714 26.34q.625 1.124-.036 2.25-.304.517-.83.82t-1.134.304H2.284q-.606 0-1.133-.304t-.83-.82q-.66-1.126-.035-2.25L14 1.195q.303-.554.838-.875t1.16-.32 1.162.32.84.876z"/></symbol></svg>