<svg xmlns="http://www.w3.org/2000/svg" width="32" height="32" viewBox="0 0 26 28"><path d="M13 8q0-1.25-.875-2.125T10 5t-2.125.875T7 8q0 .656.297 1.297Q6.657 9 6 9q-1.25 0-2.125.875T3 12t.875 2.125T6 15t2.125-.875T9 12q0-.656-.297-1.297Q9.343 11 10 11q1.25 0 2.125-.875T13 8zm13.297 11q0 .266-.766 1.03t-1.03.767q-.14 0-.445-.25t-.57-.516-.602-.624T22.5 19L21 20.5l3.437 3.437q.438.438.438 1.062 0 .655-.61 1.265t-1.265.61q-.625 0-1.062-.44L11.454 15.953Q8.704 18 5.75 18q-2.546 0-4.147-1.603T0 12.25q0-2.5 1.485-4.892T5.36 3.483 10.25 2Q12.8 2 14.4 3.6T16 7.75q0 2.952-2.046 5.702L19.5 19l1.5-1.5q-.046-.048-.405-.384t-.625-.602-.516-.57-.25-.445q0-.267.766-1.032t1.03-.766q.204 0 .36.156.094.094.72.695t1.28 1.242 1.352 1.344 1.14 1.218.446.64z"/></svg>