<svg xmlns="http://www.w3.org/2000/svg" width="32" height="32" viewBox="0 0 27 32"><path d="M4.232 25.25h4.125V12.857H4.232V25.25zM8.625 9.036q-.018-.93-.643-1.536t-1.66-.607-1.69.607-.65 1.536q0 .91.633 1.527t1.652.616h.018q1.054 0 1.696-.617t.644-1.527zM19.07 25.25h4.126v-7.107q0-2.75-1.304-4.16t-3.446-1.412q-2.43 0-3.732 2.09h.036v-1.804h-4.125q.054 1.18 0 12.393h4.125v-6.93q0-.68.125-1 .268-.625.804-1.063T17 15.82q2.07 0 2.07 2.803v6.625zm8.36-17.82V24.57q0 2.125-1.51 3.634t-3.634 1.51H5.143q-2.125 0-3.634-1.51T0 24.572V7.43q0-2.126 1.51-3.635t3.633-1.51h17.143q2.125 0 3.634 1.51t1.51 3.634z"/></svg>