<svg xmlns="http://www.w3.org/2000/svg" width="32" height="32" viewBox="0 0 14 32"><path d="M8.286 25.143q0-.59-.42-1.01t-1.01-.42-1.008.42-.42 1.01.42 1.01 1.01.42 1.008-.42.42-1.01zM12 22.286V9.716q0-.233-.17-.403t-.402-.17H2.285q-.232 0-.402.17t-.17.402v12.57q0 .233.17.403t.402.17h9.143q.232 0 .402-.17t.17-.402zM8.57 7.143q0-.286-.285-.286H5.428q-.286 0-.286.286t.286.286h2.857q.286 0 .286-.287zm5.144-.286v18.286q0 .93-.68 1.607t-1.606.68H2.285q-.93 0-1.607-.68t-.68-1.607V6.857q0-.93.68-1.607t1.607-.68h9.143q.93 0 1.607.68t.68 1.607z"/></svg>