<svg width="32" height="32" viewBox="0 0 512 512" xmlns="http://www.w3.org/2000/svg"><g fill="none" fill-rule="evenodd"><g fill="#000"><path d="M36.015 300.682c-.27-17.052 3.047-32.818 9.954-47.3 6.906-14.48 15.98-26.524 27.22-36.133 11.24-9.61 23.7-18.136 37.378-25.58 13.678-7.442 27.356-13.262 41.034-17.457 13.678-4.195 26.205-7.646 37.58-10.353 11.376-2.707 20.585-4.466 27.627-5.278l10.563-1.218v49.938c-15.44 1.083-29.59 3.722-42.456 7.917-12.866 4.194-23.362 9.134-31.487 14.818-8.126 5.684-15.303 11.842-21.533 18.473-6.23 6.632-10.97 13.128-14.22 19.49-3.25 6.36-5.823 12.11-7.72 17.254-1.895 5.143-2.978 9.338-3.25 12.586l-.812 4.872c-.812 4.06-1.22 8.12-1.22 12.18 0 5.955.95 11.64 2.845 17.052 3.25 9.203 8.397 17.052 15.44 23.548 7.04 6.496 15.03 12.518 23.97 18.067 8.938 5.548 18.147 10.014 27.626 13.397 9.48 3.383 18.148 6.293 26.002 8.73 7.855 2.435 14.22 4.194 19.095 5.277l7.72 1.218V444c-26.273-2.707-50.04-7.443-71.302-14.21-21.26-6.767-38.393-14.413-51.394-22.94-13-8.525-24.24-17.66-33.72-27.404s-16.387-19.285-20.72-28.623c-4.335-9.338-7.652-17.73-9.955-25.172-2.3-7.442-3.588-13.465-3.858-18.066l-.407-6.902zM243.218 444V77.788L300.908 38v374.332L243.22 444zm71.505-239.946h2.03c10.293.27 20.72 2.3 31.284 6.09 11.376 4.33 20.044 8.526 26.002 12.586l8.53 6.496-33.72 13.804 127.165 31.668v-99.47l-43.472 24.766c-10.834-11.64-26.07-20.977-45.706-28.014-19.637-7.037-36.633-11.233-50.988-12.586l-21.127-2.03v46.69z"/></g></g></svg>