<svg xmlns="http://www.w3.org/2000/svg" width="32" height="32" viewBox="0 0 27 32"><path d="M9.143 22.857q0-.946-.67-1.616t-1.616-.67-1.616.67-.67 1.617.67 1.616 1.617.67 1.616-.67.67-1.616zm6.268 1.68q-.23-4.144-3.16-7.072t-7.07-3.16q-.25-.02-.43.16t-.18.41v2.287q0 .232.153.393t.384.18q2.75.195 4.714 2.16t2.162 4.714q.018.23.18.383t.392.152h2.286q.232 0 .41-.18t.162-.428zm6.858.017q-.09-2.75-1-5.313t-2.49-4.642-3.662-3.66-4.643-2.492-5.313-1q-.25-.018-.41.16-.18.18-.18.412v2.286q0 .232.16.393t.394.18q3.643.124 6.75 1.99t4.973 4.973 1.99 6.75q.02.232.18.393t.393.16h2.286q.232 0 .41-.178.197-.16.162-.41zm5.16-17.125V24.57q0 2.125-1.508 3.634t-3.634 1.51H5.143q-2.125 0-3.634-1.51T0 24.572V7.43q0-2.126 1.51-3.635t3.633-1.51h17.143q2.125 0 3.634 1.51t1.51 3.634z"/></svg>