<svg xmlns="http://www.w3.org/2000/svg" width="32" height="32" viewBox="0 0 25 32"><path d="M6.857 24q0 1.43-1 2.43t-2.43 1-2.428-1T0 24t1-2.43 2.428-1 2.43 1 1 2.43zM16 26.196q.036.5-.304.857-.32.375-.84.375h-2.41q-.446 0-.768-.295t-.357-.74q-.392-4.09-3.294-6.992t-6.99-3.294q-.447-.036-.742-.357T0 14.98v-2.41q0-.518.374-.84.304-.303.768-.303h.09q2.856.232 5.463 1.438t4.625 3.24q2.036 2.02 3.24 4.626T16 26.196zm9.143.036q.036.482-.32.84-.322.356-.822.356h-2.553q-.464 0-.795-.313t-.348-.76q-.214-3.838-1.804-7.294t-4.134-6-6-4.133-7.295-1.82q-.445-.02-.758-.35T0 5.982V3.428q0-.5.356-.82.32-.322.786-.322h.054q4.68.232 8.955 2.143t7.6 5.25q3.338 3.32 5.25 7.598t2.142 8.955z"/></svg>