<svg xmlns="http://www.w3.org/2000/svg" width="32" height="32" viewBox="0 0 27 32"><path d="M6.857 27.43H20.57V20.57H6.858v6.857zm16 0h2.286v-16q0-.25-.18-.69t-.356-.615L19.59 5.107q-.18-.18-.608-.357t-.696-.18V12q0 .714-.5 1.214t-1.214.5H6.286q-.714 0-1.214-.5T4.572 12V4.57H2.286V27.43h2.286v-7.43q0-.713.5-1.213t1.214-.5h14.857q.714 0 1.214.5t.5 1.214v7.428zM16 10.856V5.143q0-.232-.17-.402t-.402-.17h-3.43q-.23 0-.4.17t-.17.403v5.714q0 .232.17.402t.4.17h3.43q.232 0 .402-.17t.17-.403zm11.43.572V28q0 .714-.5 1.214t-1.215.5h-24q-.714 0-1.214-.5T0 28V4q0-.714.5-1.214t1.215-.5h16.57q.715 0 1.572.357t1.357.857l5 5q.5.5.857 1.357t.358 1.57z"/></svg>