<svg xmlns="http://www.w3.org/2000/svg" width="32" height="32" viewBox="0 0 28 32"><path d="M8.857 24q0 1.07-.76 1.82t-1.812.75q-1.07 0-1.82-.75T3.714 24t.75-1.82 1.82-.75q1.054 0 1.813.75t.76 1.82zm7.714 3.43q0 .945-.67 1.615t-1.615.67-1.616-.67T12 27.43t.67-1.617 1.615-.67 1.616.67.67 1.616zM5.715 16q0 1.18-.84 2.018t-2.017.84-2.018-.84T0 16t.84-2.018 2.017-.84 2.018.84.84 2.018zm18.572 8q0 .82-.59 1.41t-1.41.59-1.41-.59-.59-1.41.59-1.41 1.41-.59 1.41.59.59 1.41zM9.43 8q0 1.304-.92 2.223t-2.224.92-2.223-.92T3.143 8t.92-2.223 2.223-.92 2.223.92T9.43 8zm8.284-3.43q0 1.43-1 2.43t-2.43 1-2.428-1-1-2.43 1-2.428 2.43-1 2.428 1 1 2.43zM27.43 16q0 .714-.5 1.214t-1.215.5-1.214-.5T24 16t.5-1.214 1.215-.5 1.214.5.5 1.214zm-3.716-8q0 .59-.42 1.01t-1.01.42-1.008-.42-.42-1.01.42-1.01 1.01-.42 1.008.42.42 1.01z"/></svg>