<svg xmlns="http://www.w3.org/2000/svg" width="32" height="32" viewBox="0 0 30 32"><path d="M20.304 17.93l5.464-5.305-7.536-1.107-3.375-6.82-3.375 6.82-7.536 1.107L9.41 17.93l-1.304 7.517 6.75-3.554 6.732 3.554zm9.41-6.376q0 .393-.464.857l-6.482 6.322 1.536 8.93q.018.124.018.356 0 .893-.732.893-.34 0-.714-.213l-8.018-4.214-8.018 4.214q-.393.214-.714.214-.375 0-.563-.258t-.188-.634q0-.107.036-.357l1.537-8.928-6.5-6.32Q0 11.928 0 11.553q0-.66 1-.82l8.965-1.305 4.018-8.126q.34-.732.875-.732t.875.732L19.75 9.43l8.965 1.303q1 .16 1 .82z"/></svg>