<svg xmlns="http://www.w3.org/2000/svg" width="32" height="32" viewBox="0 0 34 32"><path d="M8 8q0-.946-.67-1.616t-1.616-.67-1.616.67T3.428 8t.67 1.616 1.616.67 1.616-.67T8 8zm19.054 10.286q0 .946-.66 1.607l-8.77 8.786q-.695.66-1.624.66-.946 0-1.607-.66L1.625 15.892q-.68-.66-1.152-1.804T0 12V4.57q0-.928.68-1.606t1.606-.68h7.43q.945 0 2.088.474t1.82 1.152l12.77 12.75q.66.696.66 1.625zm6.857 0q0 .946-.66 1.607l-8.768 8.786q-.696.66-1.625.66-.643 0-1.054-.25t-.946-.804l8.393-8.393q.66-.66.66-1.607 0-.93-.66-1.625L16.482 3.91q-.68-.678-1.82-1.15t-2.09-.474h4q.946 0 2.09.473t1.82 1.15L33.25 16.66q.66.697.66 1.626z"/></svg>