<svg xmlns="http://www.w3.org/2000/svg" width="32" height="32" viewBox="0 0 25 32"><path d="M9.143 13.143V23.43q0 .25-.16.41T8.57 24H7.43q-.25 0-.41-.16t-.162-.41V13.142q0-.25.16-.41t.412-.162H8.57q.25 0 .412.162t.16.41zm4.57 0V23.43q0 .25-.16.41t-.41.16h-1.144q-.25 0-.412-.16t-.16-.41V13.142q0-.25.16-.41t.41-.162h1.144q.25 0 .41.162t.162.41zm4.573 0V23.43q0 .25-.16.41t-.412.16H16.57q-.25 0-.41-.16t-.16-.41V13.142q0-.25.16-.41t.41-.162h1.144q.25 0 .41.162t.162.41zM20.57 26.07V9.143h-16v16.93q0 .392.126.722t.26.482.187.152H20q.054 0 .188-.152t.26-.482.124-.723zm-12-19.213h8l-.856-2.09q-.125-.16-.304-.195H9.75q-.18.036-.305.196zm16.573.572V8.57q0 .25-.16.41t-.412.162h-1.713v16.93q0 1.48-.84 2.562T20 29.716H5.143q-1.18 0-2.018-1.045t-.84-2.526v-17H.573q-.25 0-.41-.16T0 8.57V7.43q0-.25.16-.412t.412-.16H6.09l1.25-2.983q.268-.66.964-1.125t1.41-.464h5.715q.713 0 1.41.464t.964 1.125l1.25 2.982h5.518q.25 0 .41.16t.162.412z"/></svg>