<svg xmlns="http://www.w3.org/2000/svg" width="32" height="32" viewBox="0 0 32 32"><path d="M18.286 24.554V21.16q0-.25-.17-.42t-.402-.17h-3.43q-.23 0-.4.17t-.17.42v3.394q0 .25.17.42t.4.17h3.43q.232 0 .402-.17t.17-.42zm-.036-6.68l.32-8.195q0-.215-.178-.34-.232-.196-.43-.196h-3.928q-.196 0-.43.196-.178.125-.178.375l.304 8.16q0 .18.18.296t.428.117h3.304q.25 0 .42-.116t.188-.294zM18 1.197L31.714 26.34q.625 1.124-.036 2.25-.304.517-.83.82t-1.134.304H2.284q-.606 0-1.133-.304t-.83-.82q-.66-1.126-.035-2.25L14 1.195q.303-.554.838-.875t1.16-.32 1.162.32.84.876z"/></svg>